<svg width="26" height="27" viewBox="0 0 26 27" fill="none" xmlns="http://www.w3.org/2000/svg">
<g clip-path="url(#clip0_13_185)">
<path fill-rule="evenodd" clip-rule="evenodd" d="M0.899815 22.5434L3.159 24.7963C3.78228 25.4188 4.79415 25.4188 5.41821 24.7963L8.80699 20.2905C9.3243 19.5282 9.43027 18.6601 8.80699 18.0376L7.42385 16.6583C8.44904 15.2846 9.67991 13.7869 11.0654 12.4053C12.6322 10.8432 14.3749 9.42312 15.9417 8.25663L17.2786 9.58874C17.9018 10.2112 18.7724 10.106 19.5378 9.58874L24.0561 6.20938C24.8137 5.68736 24.6802 4.57896 24.0561 3.95647L21.797 1.70433C20.5488 0.459337 18.9262 0.858111 17.2786 1.70433C17.2786 1.70433 12.2915 4.49575 8.022 8.75352C4.00601 12.7585 0.899815 18.0376 0.899815 18.0376C0.2522 19.814 -0.348315 21.2992 0.899815 22.5434Z" fill="#1EC472"/>
</g>
<defs>
<clipPath id="clip0_13_185">
<rect width="25.1196" height="25.1196" fill="white" transform="translate(25.2917 26.0233) rotate(180)"/>
</clipPath>
</defs>
</svg>
