<svg width="43" height="28" viewBox="0 0 43 28" fill="none" xmlns="http://www.w3.org/2000/svg">
<line x1="22.4302" y1="16.3008" x2="22.4302" y2="22.9993" stroke="#CD576C" stroke-width="1.67464"/>
<circle cx="22.4303" cy="19.65" r="6.69856" stroke="#CD576C" stroke-width="1.67464"/>
<mask id="mask0_13_203" style="mask-type:alpha" maskUnits="userSpaceOnUse" x="0" y="0" width="43" height="18">
<rect width="43" height="18" fill="#D9D9D9"/>
</mask>
<g mask="url(#mask0_13_203)">
<path fill-rule="evenodd" clip-rule="evenodd" d="M5.68165 8.39056L5.68651 11.9002C5.68712 12.8692 6.47417 13.6562 7.44376 13.6574L13.5843 12.7885C14.5796 12.598 15.3373 12.0052 15.3367 11.0362L15.3336 8.88759C17.1996 8.61649 19.3219 8.4089 21.4742 8.41195C23.908 8.41562 26.368 8.66655 28.494 8.97794L28.4977 11.0539C28.4983 12.0229 29.2572 12.6182 30.2549 12.8111L36.3979 13.6971C37.3932 13.8803 38.1515 12.9143 38.1503 11.9447L38.1448 8.43575C38.1423 6.49655 36.5701 5.54466 34.6303 4.92126C34.6303 4.92126 28.5801 3.21349 21.9474 3.20433C15.7085 3.19578 9.18635 4.88586 9.18635 4.88586C7.30089 5.76387 5.67859 6.45198 5.68165 8.39056Z" fill="#CD576C"/>
</g>
</svg>
