<svg width="43" height="43" viewBox="0 0 43 43" fill="none" xmlns="http://www.w3.org/2000/svg">
<g filter="url(#filter0_i_50_161)">
<path fill-rule="evenodd" clip-rule="evenodd" d="M10.6982 13.6279L7.72532 11.7505C5.74144 13.0444 4.04444 14.7414 2.75053 16.7253L4.62785 19.6982C4.99665 20.2823 4.6764 21.0554 4.00266 21.2076L0.472028 22.0051C0.163463 23.2863 0 24.6241 0 26C0 27.0046 0.0871461 27.9889 0.254291 28.9457L4.00266 29.7924C4.6764 29.9446 4.99665 30.7177 4.62785 31.3018L2.43574 34.7732C3.60506 36.7102 5.14988 38.395 6.96937 39.7268L10.6982 37.3721C11.2823 37.0034 12.0554 37.3236 12.2076 37.9973L13.2436 42.5836C14.452 42.8561 15.7092 43 17 43C17.9227 43 18.8282 42.9265 19.7109 42.785L20.7924 37.9973C20.9446 37.3236 21.7177 37.0034 22.3018 37.3721L26.5586 40.0602C28.3267 38.8559 29.8559 37.3267 31.0602 35.5586L28.3721 31.3018C28.0034 30.7177 28.3236 29.9446 28.9973 29.7924L33.785 28.7109C33.9265 27.8282 34 26.9227 34 26C34 24.7092 33.8561 23.452 33.5836 22.2436L28.9973 21.2076C28.3236 21.0554 28.0034 20.2823 28.3721 19.6982L30.7268 15.9694C29.395 14.1499 27.7102 12.6051 25.7732 11.4357L22.3018 13.6279C21.7177 13.9966 20.9446 13.6764 20.7924 13.0027L19.9457 9.25429C18.9889 9.08715 18.0046 9 17 9C15.6241 9 14.2863 9.16346 13.0051 9.47203L12.2076 13.0027C12.0554 13.6764 11.2823 13.9966 10.6982 13.6279ZM17 29C18.6569 29 20 27.6569 20 26C20 24.3431 18.6569 23 17 23C15.3431 23 14 24.3431 14 26C14 27.6569 15.3431 29 17 29Z" fill="#A4C0EA"/>
</g>
<g filter="url(#filter1_i_50_161)">
<path fill-rule="evenodd" clip-rule="evenodd" d="M28.1499 2.56929L26.7715 1.69886C25.5462 2.49804 24.498 3.54618 23.6989 4.77152L24.5693 6.14993C24.9381 6.73394 24.6178 7.5071 23.9441 7.65928L22.2915 8.03257C22.101 8.8239 22 9.65016 22 10.5C22 11.1205 22.0538 11.7285 22.1571 12.3194L23.9441 12.7231C24.6178 12.8753 24.9381 13.6484 24.5693 14.2324L23.5044 15.9187C24.2267 17.1151 25.1808 18.1557 26.3046 18.9783L28.1499 17.8131C28.7339 17.4443 29.5071 17.7645 29.6593 18.4383L30.1798 20.7428C30.9262 20.9111 31.7027 21 32.5 21C33.0699 21 33.6292 20.9546 34.1744 20.8672L34.7231 18.4383C34.8753 17.7645 35.6484 17.4443 36.2324 17.8131L38.4038 19.1843C39.4959 18.4404 40.4404 17.4959 41.1843 16.4038L39.8131 14.2324C39.4443 13.6484 39.7645 12.8753 40.4383 12.7231L42.8672 12.1744C42.9546 11.6292 43 11.0699 43 10.5C43 9.70274 42.9111 8.92623 42.7428 8.17984L40.4383 7.65928C39.7645 7.5071 39.4443 6.73394 39.8131 6.14993L40.9783 4.30461C40.1557 3.18081 39.1151 2.22666 37.9187 1.50443L36.2324 2.56929C35.6484 2.93808 34.8753 2.61783 34.7231 1.94409L34.3194 0.157062C33.7285 0.0538255 33.1205 0 32.5 0C31.6502 0 30.8239 0.100962 30.0326 0.291547L29.6593 1.94409C29.5071 2.61783 28.7339 2.93808 28.1499 2.56929ZM32.5 12.3529C33.5234 12.3529 34.3529 11.5234 34.3529 10.5C34.3529 9.47665 33.5234 8.64706 32.5 8.64706C31.4766 8.64706 30.6471 9.47665 30.6471 10.5C30.6471 11.5234 31.4766 12.3529 32.5 12.3529Z" fill="#A4C0EA"/>
</g>
<defs>
<filter id="filter0_i_50_161" x="-0.1" y="8.9" width="34.1" height="34.1" filterUnits="userSpaceOnUse" color-interpolation-filters="sRGB">
<feFlood flood-opacity="0" result="BackgroundImageFix"/>
<feBlend mode="normal" in="SourceGraphic" in2="BackgroundImageFix" result="shape"/>
<feColorMatrix in="SourceAlpha" type="matrix" values="0 0 0 0 0 0 0 0 0 0 0 0 0 0 0 0 0 0 127 0" result="hardAlpha"/>
<feOffset dx="-1" dy="-2.5"/>
<feGaussianBlur stdDeviation="0.05"/>
<feComposite in2="hardAlpha" operator="arithmetic" k2="-1" k3="1"/>
<feColorMatrix type="matrix" values="0 0 0 0 0 0 0 0 0 0 0 0 0 0 0 0 0 0 0.25 0"/>
<feBlend mode="normal" in2="shape" result="effect1_innerShadow_50_161"/>
</filter>
<filter id="filter1_i_50_161" x="21.9" y="-0.1" width="21.1" height="21.1" filterUnits="userSpaceOnUse" color-interpolation-filters="sRGB">
<feFlood flood-opacity="0" result="BackgroundImageFix"/>
<feBlend mode="normal" in="SourceGraphic" in2="BackgroundImageFix" result="shape"/>
<feColorMatrix in="SourceAlpha" type="matrix" values="0 0 0 0 0 0 0 0 0 0 0 0 0 0 0 0 0 0 127 0" result="hardAlpha"/>
<feOffset dx="-1" dy="-2.5"/>
<feGaussianBlur stdDeviation="0.05"/>
<feComposite in2="hardAlpha" operator="arithmetic" k2="-1" k3="1"/>
<feColorMatrix type="matrix" values="0 0 0 0 0 0 0 0 0 0 0 0 0 0 0 0 0 0 0.25 0"/>
<feBlend mode="normal" in2="shape" result="effect1_innerShadow_50_161"/>
</filter>
</defs>
</svg>
