<svg width="45" height="45" viewBox="0 0 45 45" fill="none" xmlns="http://www.w3.org/2000/svg">
<g filter="url(#filter0_i_50_148)">
<rect x="1" y="1" width="43" height="43" fill="white"/>
</g>
<rect x="1" y="1" width="43" height="43" stroke="black" stroke-width="0.5"/>
<rect x="5.30005" y="5.30005" width="34.4" height="34.4" fill="#D9D9D9"/>
<rect x="5.30005" y="5.30005" width="34.4" height="34.4" fill="#135DF2"/>
<path d="M5.30005 5.30005L30.67 20.35L39.7 26.37V39.7H23.36L17.77 20.35L5.30005 5.30005Z" fill="#FFFDC7"/>
<path d="M5.30005 5.30005L17.77 20.35L32.5334 39.7001H5.30005V5.30005Z" fill="#99CE71"/>
<line x1="0.75" y1="44" x2="0.75" y2="1" stroke="black" stroke-opacity="0.5" stroke-width="0.5"/>
<line x1="9.3501" y1="44" x2="9.3501" y2="1" stroke="black" stroke-opacity="0.5" stroke-width="0.5"/>
<line x1="1" y1="18.8101" x2="44" y2="18.8101" stroke="black" stroke-opacity="0.5" stroke-width="0.5"/>
<line x1="1" y1="27.41" x2="44" y2="27.41" stroke="black" stroke-opacity="0.5" stroke-width="0.5"/>
<line x1="1" y1="36.01" x2="44" y2="36.01" stroke="black" stroke-opacity="0.5" stroke-width="0.5"/>
<line x1="1" y1="10.2101" x2="44" y2="10.2101" stroke="black" stroke-opacity="0.5" stroke-width="0.5"/>
<line x1="17.95" y1="44" x2="17.95" y2="1" stroke="black" stroke-opacity="0.5" stroke-width="0.5"/>
<line x1="26.55" y1="44" x2="26.55" y2="1" stroke="black" stroke-opacity="0.5" stroke-width="0.5"/>
<line x1="35.1499" y1="44" x2="35.1499" y2="1" stroke="black" stroke-opacity="0.5" stroke-width="0.5"/>
<line x1="43.75" y1="44" x2="43.75" y2="1" stroke="black" stroke-opacity="0.5" stroke-width="0.5"/>
<defs>
<filter id="filter0_i_50_148" x="0.75" y="0.75" width="43.5" height="43.5" filterUnits="userSpaceOnUse" color-interpolation-filters="sRGB">
<feFlood flood-opacity="0" result="BackgroundImageFix"/>
<feBlend mode="normal" in="SourceGraphic" in2="BackgroundImageFix" result="shape"/>
<feColorMatrix in="SourceAlpha" type="matrix" values="0 0 0 0 0 0 0 0 0 0 0 0 0 0 0 0 0 0 127 0" result="hardAlpha"/>
<feOffset dx="-2" dy="-2"/>
<feComposite in2="hardAlpha" operator="arithmetic" k2="-1" k3="1"/>
<feColorMatrix type="matrix" values="0 0 0 0 0 0 0 0 0 0 0 0 0 0 0 0 0 0 0.45 0"/>
<feBlend mode="normal" in2="shape" result="effect1_innerShadow_50_148"/>
</filter>
</defs>
</svg>
